<svg xmlns="http://www.w3.org/2000/svg" width="141" height="65" viewBox="0 0 141 65" fill="none"><g clip-path="url(#clip0_3322_2351)"><path d="M12.3676 59.8358C12.3676 60.6313 12.2293 61.3473 11.9525 61.9837C11.6758 62.6201 11.2937 63.1637 10.8193 63.6079C10.3383 64.052 9.77164 64.3967 9.11277 64.642C8.45389 64.8873 7.7423 65.0066 6.97141 65.0066C6.20052 65.0066 5.48893 64.8873 4.83005 64.642C4.17118 64.4034 3.60454 64.0586 3.11697 63.6079C2.6294 63.1637 2.25384 62.6201 1.9837 61.9837C1.71356 61.3473 1.5752 60.6313 1.5752 59.8358V51.5028H3.96034V59.743C3.96034 60.1275 4.01305 60.5054 4.11188 60.8899C4.21071 61.2677 4.38202 61.6058 4.61262 61.9041C4.84323 62.2024 5.15291 62.4411 5.54164 62.6267C5.92379 62.8123 6.40477 62.9052 6.97141 62.9052C7.53805 62.9052 8.01903 62.8123 8.40118 62.6267C8.78333 62.4411 9.093 62.1958 9.33019 61.9041C9.5608 61.6058 9.73211 61.2677 9.83094 60.8899C9.92977 60.512 9.98248 60.1275 9.98248 59.743V51.5028H12.3676V59.8358Z" fill="#624B78"></path><path d="M18.6533 51.5028H21.8225L28.0489 61.3605H28.0885V51.5028H30.4736V64.6685H27.4428L21.078 54.4992H21.045V64.6685H18.6533V51.5028Z" fill="#624B78"></path><path d="M39.2621 51.5028H36.877V64.6685H39.2621V51.5028Z" fill="#624B78"></path><path d="M44 51.5028H46.6685L50.3648 61.639H50.4372L54.1731 51.5028H56.7493L51.3663 64.6685H49.304L44 51.5028Z" fill="#624B78"></path><path d="M61.4795 51.5028H70.3678V53.5446H63.8646V56.8924H70.0251V58.8679H63.8646V62.5869H70.7038V64.6685H61.4795V51.5028Z" fill="#624B78"></path><path d="M76.4822 51.5028H81.1404C81.773 51.5028 82.3857 51.5691 82.9787 51.6951C83.5717 51.8276 84.0988 52.0398 84.56 52.3381C85.0212 52.6364 85.3902 53.0275 85.6669 53.5115C85.9437 53.9954 86.082 54.5854 86.082 55.2749C86.082 56.2295 85.8053 57.0051 85.2584 57.6084C84.7116 58.2116 83.9604 58.616 83.0117 58.8281L86.5894 64.6685H83.7101L80.6068 59.0867H78.8607V64.6685H76.4756V51.5028H76.4822ZM80.8176 57.1775C81.1602 57.1775 81.4962 57.1509 81.8389 57.1045C82.1815 57.0581 82.4846 56.9587 82.7547 56.8261C83.0248 56.6869 83.2489 56.4946 83.4268 56.2427C83.6047 55.9908 83.6903 55.666 83.6903 55.2682C83.6903 54.9103 83.6112 54.6119 83.4465 54.3865C83.2818 54.1545 83.071 53.9755 82.8206 53.8363C82.5702 53.6971 82.2803 53.6043 81.9575 53.5579C81.6346 53.5115 81.3249 53.485 81.0218 53.485H78.8607V57.1841H80.811L80.8176 57.1775Z" fill="#624B78"></path><path d="M98.68 54.254C98.4296 53.9292 98.0673 53.664 97.6126 53.4452C97.1514 53.2265 96.6902 53.1204 96.2224 53.1204C95.9457 53.1204 95.6689 53.1535 95.3922 53.2198C95.1155 53.2861 94.8585 53.3922 94.6345 53.538C94.4105 53.6773 94.2194 53.8695 94.0745 54.0949C93.9295 54.3269 93.857 54.5987 93.857 54.9236C93.857 55.2219 93.9229 55.4738 94.0481 55.6859C94.1733 55.8981 94.3512 56.077 94.5686 56.2229C94.7926 56.3687 95.0562 56.5013 95.3724 56.614C95.6887 56.7267 96.0379 56.8394 96.4135 56.9521C96.8417 57.0913 97.2898 57.2438 97.751 57.4162C98.2122 57.5885 98.6339 57.8205 99.0226 58.1056C99.4048 58.3907 99.721 58.7486 99.9714 59.1862C100.215 59.6237 100.34 60.1607 100.34 60.8037C100.34 61.513 100.209 62.1296 99.9451 62.6533C99.6815 63.1836 99.3257 63.6145 98.8843 63.9659C98.4428 64.3172 97.9223 64.5758 97.3293 64.7481C96.7363 64.9205 96.1104 65.0067 95.4515 65.0067C94.5818 65.0067 93.7253 64.8476 92.8951 64.5294C92.0649 64.2112 91.3796 63.7471 90.8525 63.124L92.559 61.5595C92.8885 62.0036 93.3233 62.3616 93.8768 62.6201C94.4237 62.8787 94.9639 63.0113 95.4976 63.0113C95.7744 63.0113 96.0577 62.9781 96.3476 62.9118C96.6375 62.8455 96.901 62.7262 97.1317 62.5671C97.3623 62.408 97.5533 62.2025 97.6983 61.9638C97.8432 61.7252 97.9157 61.4202 97.9157 61.0623C97.9157 60.7043 97.8367 60.4258 97.6719 60.2004C97.5072 59.9684 97.2898 59.7696 97.0065 59.6038C96.7297 59.4381 96.4003 59.2922 96.0247 59.1663C95.6426 59.0403 95.2473 58.9144 94.8322 58.7752C94.4302 58.6492 94.0217 58.5034 93.6198 58.331C93.2179 58.1586 92.8555 57.9266 92.5327 57.6416C92.2098 57.3565 91.9463 57.0051 91.7486 56.5941C91.5444 56.1765 91.4455 55.6594 91.4455 55.0429C91.4455 54.3733 91.5905 53.7966 91.8738 53.3126C92.1571 52.8287 92.5327 52.4309 92.9939 52.1127C93.4551 51.7945 93.9822 51.5625 94.5686 51.4034C95.155 51.2509 95.7546 51.1714 96.3608 51.1714C97.0394 51.1714 97.7312 51.2907 98.4362 51.5227C99.1346 51.7614 99.7474 52.1127 100.261 52.5834L98.7064 54.254H98.68Z" fill="#624B78"></path><path d="M108.55 51.5028H106.165V64.6685H108.55V51.5028Z" fill="#624B78"></path><path d="M117.662 53.5446H113.551V51.5028H124.159V53.5446H120.047V64.6685H117.662V53.5446Z" fill="#624B78"></path><path d="M132.171 58.9607L127.131 51.5028H130.05L133.417 57.0449L136.83 51.5028H139.597L134.556 58.9607V64.6685H132.171V58.9607Z" fill="#624B78"></path><path d="M86.2933 41.7246H0.474393C0.210841 41.7246 0 41.5125 0 41.2473C0 40.9822 0.210841 40.77 0.474393 40.77H86.2933C86.5569 40.77 86.7677 40.9822 86.7677 41.2473C86.7677 41.5125 86.5569 41.7246 86.2933 41.7246Z" fill="#624B78"></path><path d="M140.473 41.7246H112.036C111.772 41.7246 111.562 41.5125 111.562 41.2473C111.562 40.9822 111.772 40.77 112.036 40.77H140.473C140.737 40.77 140.947 40.9822 140.947 41.2473C140.947 41.5125 140.737 41.7246 140.473 41.7246Z" fill="#624B78"></path><path d="M33.5238 0.928098L30.2689 2.10148C29.2015 2.49261 28.7139 2.98317 28.6678 3.85824C28.5229 7.81591 28.1341 16.4605 28.1341 19.2978C28.1341 21.2998 28.1341 26.9215 28.233 32.4901H27.0667C23.9568 27.8496 20.6097 23.4013 17.3088 18.9067L7.45193 5.56859H7.3531V11.0377C7.3531 17.488 7.45193 27.1137 7.59688 28.0418C7.74184 28.8241 8.08445 29.2152 9.48786 29.6527L12.6966 30.6803V31.3631C10.5618 31.1642 8.37436 30.972 6.23959 30.972C4.10483 30.972 2.11501 31.1642 0.0263672 31.3631V30.6803L3.71609 29.2616C4.39473 29.0163 4.82959 28.5788 4.8823 28.1346C5.07338 26.5701 5.41599 19.2912 5.41599 13.0398V3.3743L4.78347 2.3998C3.27464 1.71035 1.7724 1.17338 0.217442 0.682815V0C1.7724 0.192249 3.32735 0.391127 4.8823 0.391127C6.33842 0.391127 7.79455 0.198878 9.25067 0C10.1731 1.71035 11.1944 3.27486 12.3606 4.83937L26.1048 23.4013L26.2036 23.3019V11.4753C26.2036 9.12851 26.1575 6.73534 26.0059 4.34217C25.9071 2.97654 25.5184 2.58542 24.115 1.99541L20.9128 0.676186V0C22.9026 0.192249 24.9452 0.391127 26.935 0.391127C29.1224 0.391127 31.3033 0.198878 33.5369 0V0.928098" fill="#624B78"></path><path d="M40.2838 29.3147C43.3938 29.3147 45.9634 27.0674 45.9634 23.1561V19.099C42.0299 19.099 36.1527 19.7818 36.1527 25.0587C36.1527 27.6507 37.51 29.3147 40.2773 29.3147M46.1083 27.2132H46.0095C44.1185 29.7522 42.0299 31.8537 38.4851 31.8537C34.9403 31.8537 32.0742 30.0439 32.0742 25.841C32.0742 20.2724 37.7076 17.7798 45.7196 17.7798H46.0622V15.1877C46.0622 11.5748 43.9274 10.5472 41.1602 10.5472C38.3929 10.5472 36.1593 12.1117 34.7031 14.306L33.4908 13.6232C35.7771 9.95722 38.5905 8.00159 42.3791 8.00159C46.1676 8.00159 49.6663 9.32081 49.6663 13.8619V27.4916C49.6663 29.8384 50.2 30.0837 53.2572 30.6671V31.3499C51.9921 31.151 50.7337 30.9588 49.5147 30.9588C48.2958 30.9588 47.1362 31.151 45.97 31.3499L46.1149 27.2L46.1083 27.2132Z" fill="#624B78"></path><path d="M53.0986 30.6802L56.2085 29.5069C56.8872 29.2616 57.2298 28.9699 57.2298 26.0398V18.3233C57.2298 10.8985 57.1837 10.6532 56.1624 10.4079L53.1052 9.57928V8.89646C55.8264 8.89646 58.4949 8.69759 61.1172 8.50534C61.0711 10.0168 60.9722 11.5813 60.9722 13H61.0711C62.1912 10.8521 65.0046 8.01477 67.9168 8.01477C68.5493 8.01477 69.1291 8.16061 69.7155 8.30646V12.9005H69.3268C68.4044 11.9724 67.1393 11.4355 65.7359 11.4355C62.9686 11.4355 60.9261 13.4375 60.9261 17.5941V25.5558C60.9261 28.7312 61.2687 29.1754 62.0923 29.4141L65.8282 30.6869V31.3697C63.5946 31.1708 61.4598 30.9786 59.2723 30.9786C57.0848 30.9786 55.1477 31.1708 53.1052 31.3697V30.6869" fill="#624B78"></path><path d="M82.1685 30.8261C87.3143 30.8261 88.6255 24.5681 88.6255 20.2723C88.6255 15.9765 86.9717 9.03568 81.6348 9.03568C76.7327 9.03568 74.8352 13.5767 74.8352 19.2448C74.8352 25.695 77.3587 30.8261 82.1685 30.8261ZM81.536 31.8536C74.8352 31.8536 70.4668 26.8684 70.4668 20.08C70.4668 13.2917 75.1317 8.01477 82.1685 8.01477C88.7243 8.01477 93.0004 12.7547 93.0004 19.2514C93.0004 25.7481 89.0669 31.8536 81.5425 31.8536" fill="#624B78"></path><path d="M106.62 9.62568C103.661 9.62568 100.749 12.2641 100.749 19.4436C100.749 24.82 102.495 30.8261 107.107 30.8261C111.72 30.8261 113.13 27.1137 113.176 21.2004C113.228 14.2131 110.553 9.61905 106.62 9.61905M93.0732 40.9424L96.4269 39.822C96.9145 39.6762 97.2044 39.2386 97.2044 38.7481C97.2505 36.3549 97.3955 30.9322 97.3955 25.5558C97.3955 20.1795 97.2505 14.7634 97.2044 12.5625C97.1517 11.1968 97.0068 10.8521 96.5258 10.7063L93.0732 9.57928V8.89646C95.5045 8.85006 98.8055 8.69759 101.184 8.50534C101.085 9.67872 100.993 10.8985 100.993 11.926H101.092C102.495 9.53287 104.538 8.01477 107.891 8.01477C114.737 8.01477 117.557 13.7822 117.557 19.205C117.557 26 113.479 31.8603 107.068 31.8603C104.59 31.8603 102.311 30.8327 101.191 28.8771H101.092V34.7374C101.092 39.232 101.191 39.6231 102.014 39.8684L105.17 40.9424V41.6252C103.18 41.4329 101.191 41.234 99.1942 41.234C97.1978 41.234 95.1619 41.4329 93.0732 41.6252V40.9424Z" fill="#624B78"></path><path d="M128.033 29.3147C131.143 29.3147 133.713 27.0674 133.713 23.1561V19.099C129.779 19.099 123.902 19.7818 123.902 25.0587C123.902 27.6507 125.266 29.3081 128.033 29.3081M133.864 27.2132H133.765C131.874 29.7522 129.786 31.8537 126.241 31.8537C122.696 31.8537 119.83 30.0439 119.83 25.841C119.83 20.2724 125.463 17.7798 133.475 17.7798H133.818V15.1877C133.818 11.5748 131.683 10.5472 128.916 10.5472C126.149 10.5472 123.915 12.1117 122.459 14.306L121.247 13.6232C123.526 9.95722 126.346 8.00159 130.135 8.00159C133.923 8.00159 137.416 9.32081 137.422 13.8619V27.4916C137.422 29.8384 137.956 30.0837 141.013 30.6671V31.3499C139.748 31.151 138.49 30.9588 137.271 30.9588C136.052 30.9588 134.892 31.151 133.726 31.3499L133.871 27.2L133.864 27.2132Z" fill="#624B78"></path></g><defs><clipPath id="clip0_3322_2351"><rect width="141" height="65" fill="white"></rect></clipPath></defs></svg>